<svg version="1.1" xmlns="http://www.w3.org/2000/svg" style="display: block;" viewBox="0 0 2048 2048" width="1024" height="1024">
<path transform="translate(0,0)" fill="rgb(1,1,107)" d="M 0 1438.16 L -0 -0 L 2048 0 L 2048 1432.14 L 2048 1646.31 L 2048 2048 L -0 2048 L 0 1644.87 L 0 1438.16 z M 0 1438.16 L 9.89545 1417.18 C 23.7528 1393.01 53.7518 1373.24 80.3123 1366.15 L 82 1365.71 C 93.8511 1362.54 107.366 1363.07 119.562 1363 C 143.763 1362.87 168.018 1364.04 192.199 1363.44 L 194.5 1364.17 C 196.538 1369.08 196.828 1374.35 197.503 1379.59 C 198.903 1390.46 199.911 1403.14 204.387 1413.26 L 257.181 1412.98 C 252.154 1407.82 250.677 1394.72 249.048 1387.75 C 237.126 1336.69 229.572 1283.28 226.866 1230.91 C 223.68 1169.25 225.829 1106.07 234.95 1045 C 240.457 1008.13 247.084 972.675 258.835 937.205 C 268.502 908.025 280.026 879.275 301.125 856.225 C 310.79 845.666 322.329 844.51 335.974 843.927 L 338.854 841.988 L 340.427 841.471 C 344.173 840.147 347.745 837.225 349.288 833.5 C 351.799 827.44 348.582 821.966 346.069 816.55 C 354.071 814.635 362.214 814.873 368.5 808.869 C 375.689 802.003 378.387 791.472 383.446 783.069 C 387.756 775.908 392.715 769.032 397.454 762.151 C 414.841 736.905 434.662 712.863 455.06 690 C 472.925 669.977 492.225 651.731 511.918 633.526 C 547.63 600.512 586.202 568.67 627.689 543.135 C 658.212 524.347 691.152 508.298 723.728 493.412 C 736.333 487.652 748.935 482.177 761.891 477.24 C 771.077 473.739 779.864 470.309 789.771 469.749 C 796.43 454.34 803.624 439.008 811.87 424.371 C 816.015 417.016 821.015 410.194 825.167 402.849 C 834.374 392.642 843.401 382.621 854.274 374.121 C 885.127 350.005 923.67 339.219 962.257 337.234 C 984.231 336.104 1006.63 337.314 1028.62 337.613 C 1059.34 338.031 1090.09 337.893 1120.81 337.958 C 1146.02 338.012 1171.22 338.001 1196.42 338.015 C 1212.72 338.024 1229.96 336.98 1246.06 339.608 C 1260.06 341.894 1272.35 348.892 1283.9 356.791 C 1301.69 368.95 1317.38 391.457 1321.22 412.935 C 1322.89 422.306 1322.89 431.805 1322.91 441.292 C 1321.75 459.469 1317.63 474.325 1310.99 491.102 C 1318.88 491.961 1325.47 494.247 1332.97 496.671 C 1356.08 504.134 1375.3 515.199 1396.39 526.743 C 1411.28 534.893 1426.8 541.436 1441.46 550.141 C 1459.67 560.961 1476.85 573.459 1494.3 585.441 C 1513.58 598.673 1533.73 611.816 1551.67 626.804 C 1567.83 640.309 1583.11 655.886 1598.13 670.687 C 1621.39 693.596 1644.39 716.413 1664.88 741.884 C 1692.14 775.781 1714.72 810.795 1735.36 849.119 C 1752.18 880.354 1766.97 911.747 1775.7 946.31 L 1826.81 947.401 C 1853.54 953.969 1877.32 966.741 1891.91 991 C 1901.25 1006.51 1904.63 1023.05 1904.83 1041 C 1904.97 1052.44 1903.39 1063.83 1902.09 1075.17 C 1898.83 1103.64 1893.43 1131.75 1888.75 1160 C 1877.63 1227.16 1865.77 1294.62 1860.04 1362.49 C 1881.31 1363.53 1902.71 1363.09 1924 1363.13 C 1937.92 1363.16 1953.51 1362.09 1967.02 1365.68 C 1977.39 1368.44 1986.94 1372.31 1996.21 1377.73 C 2019.18 1391.17 2035.22 1409.1 2048 1432.14 L 2048 0 L -0 -0 L 0 1438.16 z M 0 1644.87 L -0 2048 L 2048 2048 L 2048 1646.31 C 2039.11 1661.71 2028.73 1673.28 2013.38 1682.54 C 1992.84 1694.92 1968.56 1699.84 1944.77 1699.79 C 1937.89 1699.77 1929.32 1698.31 1922.67 1699.62 C 1917.85 1700.57 1912.63 1703.39 1908.06 1705.25 C 1898.74 1709.06 1890.13 1711.03 1880.03 1711.61 C 1856.89 1712.93 1833.32 1711.93 1810.13 1712.11 C 1749.23 1712.59 1688.33 1711.96 1627.43 1712.03 C 1449.04 1712.24 1270.66 1712 1092.27 1712 C 899.912 1712 707.549 1712.06 515.186 1712.01 C 432.863 1711.99 350.537 1711.92 268.214 1712.02 C 246.105 1712.04 224.003 1712.37 201.896 1712.55 C 188.803 1712.66 174.819 1713.61 161.866 1711.6 C 155.082 1710.55 148.817 1707.62 142.822 1704.41 C 139.663 1702.72 135.492 1699.88 131.962 1699.27 C 125.611 1698.19 117.561 1699.01 111.024 1699.02 C 93.9458 1699.02 76.6068 1698.27 59.999 1693.89 C 33.8224 1686.98 13.2209 1667.83 0 1644.87 z M 257.181 1412.98 C 264.945 1414.95 277.768 1415.35 285.558 1413.11 L 480.903 1413.12 L 482.37 1387 L 482.912 1378.25 L 482.945 1376.91 C 483.045 1370.29 483.027 1360.42 477.742 1355.62 C 472.372 1350.74 460.962 1352.11 454.263 1352.08 C 453.893 1346.41 452.547 1340.34 451.098 1334.85 C 445.645 1314.2 434.431 1301.78 416.361 1291.13 C 418.79 1282.21 419.355 1272.63 420.085 1263.44 C 421.52 1245.39 421.813 1227.19 422.808 1209.1 C 425.412 1161.79 428.066 1114.19 434.718 1067.25 C 438.229 1042.48 443.022 1018.27 449.81 994.195 C 451.289 988.949 453.873 977.343 458.099 974.176 C 457.984 972.99 442.698 964.944 440.931 963.805 C 427.448 955.119 415.039 945.834 402.5 935.857 C 389.113 925.205 377.158 916.461 367.936 901.582 C 356.377 882.933 347.588 862.46 335.974 843.927 C 322.329 844.51 310.79 845.666 301.125 856.225 C 280.026 879.275 268.502 908.025 258.835 937.205 C 247.084 972.675 240.457 1008.13 234.95 1045 C 225.829 1106.07 223.68 1169.25 226.866 1230.91 C 229.572 1283.28 237.126 1336.69 249.048 1387.75 C 250.677 1394.72 252.154 1407.82 257.181 1412.98 z"/>
<path transform="translate(0,0)" fill="rgb(247,194,129)" d="M 988.623 998.5 C 990.562 998.237 990.027 998.108 991.611 998.483 C 1018.97 1004.95 1044.3 1002.52 1071.97 999.862 L 1058.89 1025.03 C 1055.51 1029.51 1051.15 1034.04 1046.2 1036.74 C 1039.32 1040.49 1029.08 1041.99 1021.55 1039.4 C 1004.67 1033.59 996.39 1013.1 988.623 998.5 z"/>
<path transform="translate(0,0)" fill="rgb(247,194,129)" d="M 1290.28 653.5 L 1291.88 653.336 C 1300.34 657.582 1308.05 661.93 1315.15 668.252 C 1326.01 677.908 1333.95 690.601 1334.71 705.437 C 1335.47 720.184 1328.16 733.553 1318.74 744.268 C 1309.82 752.625 1300.18 756.962 1288.76 760.91 C 1290.74 744.709 1290.33 727.929 1290.38 711.625 C 1290.43 692.249 1290.75 672.873 1290.28 653.5 z"/>
<path transform="translate(0,0)" fill="rgb(247,194,129)" d="M 769.666 653.5 L 771.842 654.5 L 772.028 760.978 C 761.86 756.268 754.524 751.545 746.16 744.124 C 737.99 735.573 731.596 726.182 728.58 714.585 C 725.412 702.403 728.214 689.551 734.667 678.919 C 742.219 666.478 755.549 656.819 769.666 653.5 z"/>
<path transform="translate(0,0)" fill="rgb(24,193,215)" d="M 1120.91 1026.02 C 1127.57 1024.21 1136.72 1026.05 1143.67 1026.71 C 1190.57 1031.17 1239.58 1044.92 1280.56 1068.37 L 1285.81 1071.41 L 1263.8 1222.31 C 1251.65 1217.04 1239.8 1214.5 1226.9 1211.98 C 1230.21 1211.55 1233.66 1211.61 1237 1211.51 L 1238 1212.5 C 1239.55 1212.42 1240.42 1212.42 1241.91 1213.01 L 1243 1213.5 L 1243 1212.49 C 1241.71 1211.47 1241.09 1211.02 1239.5 1210.49 L 1238.5 1211.49 L 1233.54 1208.5 C 1231.03 1204.2 1230.15 1203.57 1231.53 1198.48 L 1231.96 1197 L 1235.09 1185.97 L 1237.64 1177 C 1245.2 1151.03 1251.63 1122.28 1251.29 1095.12 C 1251.15 1083.77 1246.07 1075.68 1238.32 1067.82 C 1214.98 1044.16 1176.28 1038.07 1144.98 1032.07 C 1138.16 1030.76 1125.85 1030.81 1120.91 1026.02 z"/>
<path transform="translate(0,0)" fill="rgb(8,36,135)" d="M 973.143 463.131 C 977.397 462.563 981.455 462.23 985.258 464.594 C 988.171 466.404 990.04 468.505 990.488 471.977 C 991 475.943 984.514 482.107 982.181 485.131 C 971.055 499.556 968.992 523.654 971.503 541.143 C 971.956 544.299 974.305 565.444 975.288 566.301 C 976.14 567.044 981.57 568.029 983.065 568.5 C 995.032 572.268 1007.13 576.125 1018.94 580.342 C 1058.57 594.484 1097.94 613.121 1134.05 634.729 C 1143.54 640.413 1155.04 646.57 1162.39 655 L 1161.5 656.203 C 1157.21 656.955 1153.89 656.561 1149.67 655.494 C 1136.65 652.198 1123.77 645.364 1111.61 639.764 C 1094.95 632.091 1078.24 624.478 1061.5 616.988 C 1044.51 609.705 1027.39 600.978 1008.72 599.543 C 994.666 598.462 979.567 600.357 965.501 601.312 C 962.05 601.547 955.252 601.207 952.161 602.5 C 951.136 602.929 948.804 605.772 947.977 606.649 C 941.726 613.275 936.539 620.956 930.535 627.827 C 921.531 638.13 911.587 647.956 901.073 656.733 C 895.162 661.668 888.57 667.537 880.5 666.774 L 879.365 665 C 884.19 656.629 892.696 649.388 898.958 641.992 C 919.95 617.198 937.966 590.541 944.966 558.309 L 945.349 556.5 C 949.486 537.575 944.537 517.159 949.542 498.605 L 950.005 497 C 953.849 483.262 960.589 470.62 973.143 463.131 z"/>
<path transform="translate(0,0)" fill="rgb(136,222,235)" d="M 1865.84 1414.78 C 1882.75 1414.85 1899.66 1414.93 1916.57 1415.07 C 1928.39 1415.16 1941.59 1414.34 1953 1417.71 L 1954.87 1418.25 C 1975.38 1424.39 1994.62 1442.17 2004.39 1460.91 C 2008.91 1469.56 2011.54 1479.03 2012.57 1488.72 C 2014.23 1504.45 2012.74 1521.71 2012.51 1537.58 C 2012.31 1550.77 2012.11 1563.97 2011.79 1577.16 C 2011.55 1586.63 2011.74 1596.79 2008.84 1605.85 C 2004.82 1618.38 1993.28 1634 1981.5 1639.99 C 1972.32 1644.65 1960.66 1644.99 1950.53 1646.27 L 1951.02 1645.15 C 1952.74 1641.12 1953.97 1637.23 1955.05 1633 L 1955.53 1631.15 C 1958.37 1619.95 1957.95 1607.38 1957.98 1595.89 C 1958.02 1578.44 1957.75 1561.01 1957.41 1543.57 C 1957.17 1531.56 1957.99 1518.33 1956.46 1506.49 C 1955.8 1501.34 1953.5 1496.21 1950.82 1491.82 C 1945.12 1482.49 1932.12 1467.77 1920.84 1465.81 C 1913.27 1464.51 1903.3 1465.84 1895.52 1465.97 C 1893.92 1463.68 1893.12 1459.57 1891.92 1456.86 C 1889.53 1451.46 1886.5 1446.17 1883.64 1441 C 1878.71 1432.1 1872.38 1424.85 1866.91 1416.46 L 1865.84 1414.78 z"/>
<path transform="translate(0,0)" fill="rgb(5,129,191)" d="M 1370.43 1005.77 C 1385.87 1007.07 1400.73 1007.78 1411.3 1020.97 C 1413.73 1023.99 1414.05 1025.92 1413.7 1029.71 C 1403.5 1039.5 1393.29 1044.66 1387.55 1058.56 C 1381.93 1072.16 1380.75 1088.7 1379.27 1103.2 C 1377.46 1121.04 1375.92 1138.91 1374.02 1156.73 C 1369.86 1195.72 1364.57 1234.81 1358.93 1273.61 C 1355.78 1295.31 1352.07 1316.42 1347.59 1337.87 C 1345.86 1346.17 1344.6 1355.26 1342.26 1363.34 L 1301.99 1363.01 C 1304.14 1349.4 1305.15 1335.57 1306.71 1321.87 C 1309.55 1296.75 1312.47 1271.61 1315.57 1246.52 C 1320.93 1203.23 1328.25 1160.23 1333.92 1117 C 1335.62 1104.05 1337.34 1091 1338.6 1078 C 1340 1063.58 1340.56 1048.61 1345.37 1034.81 C 1350.05 1021.41 1357.61 1011.93 1370.43 1005.77 z"/>
<path transform="translate(0,0)" fill="rgb(8,36,135)" d="M 963.532 389.376 C 1012.98 387.651 1062.56 390.087 1112.02 390.024 C 1149.58 389.977 1187.67 387.114 1225.16 388.926 C 1231.25 389.221 1236.94 390.239 1242.54 392.784 C 1251.95 397.063 1260.9 405.486 1264.41 415.377 C 1270.71 433.119 1269.25 455.27 1260.49 471.963 C 1255.87 480.752 1249.82 488.541 1244.72 497.008 C 1243.24 499.458 1239.74 504.885 1239.46 507.558 C 1239.12 510.76 1240.77 516.513 1241.42 519.753 C 1243.48 529.972 1246.02 540.12 1247.56 550.434 C 1249.53 563.664 1253.34 638.752 1247.92 648.098 C 1243.66 655.448 1234.54 657.883 1227.03 660.297 C 1230.68 626.927 1231.98 592.339 1228.19 558.93 C 1226.78 546.53 1224.1 534.095 1221.74 521.844 C 1220.47 515.245 1218.28 508.272 1219.14 501.5 C 1219.73 496.821 1223.31 491.613 1225.78 487.665 C 1235.88 471.565 1248.76 453.641 1245.55 433.365 L 1245.3 432 C 1244.47 427.252 1243.13 422.737 1240.1 418.893 C 1236.68 414.564 1231.59 411.022 1226.24 409.597 C 1220.29 408.015 1212.37 408.92 1206.22 408.922 C 1191.69 408.927 1177.16 408.99 1162.62 409.064 C 1128.18 408.889 1093.71 410.029 1059.28 409.442 C 1036.3 409.05 1013.28 408.013 990.303 407.996 C 976.153 407.985 961.741 407.827 947.75 410.262 C 928.396 413.631 912.229 423.61 897.642 436.391 C 873.553 457.496 860.803 484.099 852.006 514.352 C 848.234 527.327 844.983 540.039 843.641 553.515 C 840.664 583.393 842.228 613.976 840.759 644.013 C 840.535 648.582 841.066 657.369 838.5 660.974 L 836.906 661.102 C 831.083 661.387 823.734 657.87 819.5 654.027 C 818.585 649.866 819.486 645.69 819.896 641.5 C 820.461 635.714 820.676 629.898 820.825 624.088 C 821.46 599.374 819.09 573.055 822.58 548.634 C 829.367 501.138 851.013 448.226 888.313 416.672 C 911.062 397.428 934.411 391.605 963.532 389.376 z"/>
<path transform="translate(0,0)" fill="rgb(141,227,245)" d="M 1895.52 1465.97 L 1524.85 1465.15 C 1530.72 1447.85 1530.36 1431.65 1524.05 1414.61 L 1865.84 1414.78 L 1866.91 1416.46 C 1872.38 1424.85 1878.71 1432.1 1883.64 1441 C 1886.5 1446.17 1889.53 1451.46 1891.92 1456.86 C 1893.12 1459.57 1893.92 1463.68 1895.52 1465.97 z"/>
<path transform="translate(0,0)" fill="rgb(8,36,135)" d="M 1608.46 999.189 C 1658.23 999.017 1708.02 998.872 1757.79 999.011 C 1770.8 999.047 1783.8 999.019 1796.81 999.115 C 1805.27 999.178 1814.28 998.832 1822.59 1000.57 C 1829.22 1001.96 1835.42 1006.18 1840.06 1010.98 C 1848.15 1019.34 1852.25 1029.64 1851.65 1041.25 C 1850.16 1070.08 1844.01 1099.66 1839.61 1128.25 C 1831.79 1179.1 1823.98 1229.96 1816.25 1280.83 C 1814.59 1291.8 1813.37 1303.05 1810.95 1313.87 C 1809.58 1320 1807.01 1325.93 1806.18 1332.17 C 1804.68 1343.52 1805.91 1356.7 1805.84 1368.27 C 1802.24 1369.1 1788.01 1368 1785.1 1365.84 C 1784.16 1365.13 1784.19 1364.6 1783.69 1363.56 C 1781.52 1359.11 1777.16 1359.07 1773.43 1356.71 C 1768.07 1353.3 1762.87 1349.66 1758.49 1345 C 1758.48 1349.83 1761.91 1355.22 1764.03 1359.5 C 1766.44 1361.28 1769.09 1361.45 1771.94 1361.89 C 1774.16 1362.24 1775.52 1362.91 1777.5 1363.88 L 1778.01 1365.5 C 1772.59 1366.06 1766.73 1364.99 1761.21 1364.95 C 1743.13 1364.84 1723.31 1366.42 1705.52 1364.15 C 1718.24 1362.45 1732.76 1363.74 1745.68 1363.72 C 1743.8 1338.7 1751.58 1313.71 1755.4 1289.15 C 1759.73 1261.32 1763.18 1233.35 1766.96 1205.44 C 1772.64 1163.51 1778.41 1121.79 1779.13 1079.42 C 1779.41 1063 1779.72 1046.08 1776.02 1030 C 1774.87 1024.99 1773.61 1019.91 1770.84 1015.5 C 1768.29 1011.42 1764.02 1007.23 1762.8 1002.55 L 1762.36 1000.65 C 1755.65 998.13 1743.51 999.93 1736.17 999.924 C 1707.96 999.899 1679.74 1000.08 1651.52 1000.15 C 1638.19 1000.18 1622.41 1001.68 1609.35 999.363 L 1608.46 999.189 z"/>
<path transform="translate(0,0)" fill="rgb(141,227,245)" d="M 480.903 1413.12 C 492.977 1412.2 507.311 1411.99 519.242 1414.01 L 519.002 1414.97 C 517.433 1421.61 516.744 1429.1 518.105 1435.83 C 520.251 1446.43 527.809 1454.54 517.995 1463.76 C 511.838 1466.06 504.918 1465.78 498.421 1465.83 C 489.885 1465.9 481.349 1465.93 472.814 1465.97 C 443.772 1466.08 414.741 1465.99 385.699 1465.8 C 332.192 1465.44 278.609 1465.18 225.1 1465.15 C 194.755 1465.13 164.565 1466.6 134.255 1467.19 C 119.356 1468.97 109.412 1473.23 100.119 1485.35 C 92.9803 1494.65 90.5703 1506.34 89.6942 1517.78 C 88.6177 1532.59 88.8997 1547.64 88.8988 1562.49 C 88.8969 1591.93 87.882 1619.03 101.03 1646.26 C 82.6558 1644.81 67.9083 1644.4 53.9945 1630.58 C 47.5733 1624.2 41.8835 1615.4 39.4936 1606.63 C 35.8654 1593.31 37.0539 1577.27 36.9101 1563.47 C 36.721 1545.32 36.372 1527.18 36.2947 1509.03 C 36.2549 1499.7 35.8911 1489.21 37.6367 1480.03 C 40.8296 1463.22 50.1471 1447.45 62.2572 1435.48 C 87.2454 1410.77 117.504 1412.89 149.991 1413.01 C 168.123 1413.08 186.255 1413.17 204.387 1413.26 L 257.181 1412.98 C 264.945 1414.95 277.768 1415.35 285.558 1413.11 L 480.903 1413.12 z"/>
<path transform="translate(0,0)" fill="rgb(189,238,245)" d="M 89.6942 1517.78 L 88.6779 1517.61 L 88 1516.5 L 88.5 1514 C 88.6648 1512.2 88.5102 1510.27 89 1508.5 L 89.75 1506.75 C 89.4557 1504.6 89.3237 1505.47 89.9587 1503.55 L 90.5 1502 C 90.9871 1500.26 91.067 1498.64 92 1497 L 93 1495.5 L 92.005 1492.99 L 91.51 1491.5 L 90.51 1490.5 C 90.2578 1489.09 89.9604 1487.83 89.5044 1486.46 L 89.005 1484.99 L 88.51 1483 C 87.2589 1480.59 87.51 1479.72 87.51 1477 L 88.5 1475.51 C 88.4746 1473.7 88.3728 1471.94 88.7266 1470.16 L 89.51 1466.5 L 88.25 1466.25 C 86.2589 1467.1 87.0377 1466.9 85.3125 1467.25 L 81.25 1468.25 C 78.5816 1469.24 80.4694 1468.82 78.3125 1469.25 L 74.25 1470.25 C 70.3094 1471.71 65.6446 1473.27 61.5 1474 C 63.1442 1472.79 62.5259 1473.06 64.2522 1472.41 L 65.897 1471.83 C 82.2213 1465.84 98.6971 1464.55 110.111 1450 C 110.945 1448.94 111.771 1447.64 112.821 1446.79 C 115.114 1444.93 118.159 1444.55 121 1444.88 C 125.789 1445.43 129.057 1447.88 132.014 1451.5 C 132.139 1454.95 133.725 1457.3 133.96 1460.65 L 134.255 1467.19 C 119.356 1468.97 109.412 1473.23 100.119 1485.35 C 92.9803 1494.65 90.5703 1506.34 89.6942 1517.78 z"/>
<path transform="translate(0,0)" fill="rgb(1,83,173)" d="M 1795.6 1516.84 L 1909.21 1516.02 C 1909.24 1533.78 1909.39 1551.53 1909.52 1569.29 C 1909.63 1583.75 1910.34 1598.82 1907.25 1613 C 1903.67 1629.42 1896.49 1645.18 1883.38 1656.21 C 1871.84 1658.83 1859.55 1658.14 1847.76 1658.22 C 1827.5 1658.37 1807.25 1658.14 1786.99 1658.08 C 1730.96 1657.91 1674.89 1658.09 1618.86 1658.2 C 1597.29 1658.25 1575.74 1659.02 1554.16 1659.05 C 1494.48 1659.13 1434.82 1658.14 1375.16 1658.08 C 1281.14 1657.99 1187.12 1658.82 1093.11 1658.9 C 1004.5 1658.98 915.853 1658.21 827.226 1658.23 C 795.726 1658.23 764.23 1659.01 732.734 1658.97 C 667.388 1658.87 602.054 1657.91 536.697 1657.99 C 475.161 1658.07 413.756 1658.92 352.213 1658.28 C 312.284 1657.86 272.328 1658.4 232.39 1658.1 C 213.673 1657.96 194.082 1658.76 175.5 1656.75 C 172.498 1656.42 169.369 1655.44 166.804 1653.81 C 160.966 1650.1 154.273 1642.19 151.17 1636.04 C 159.448 1638 168.679 1636.69 177.196 1637.07 C 218.333 1638.91 258.883 1638.42 300.021 1638.13 C 337.814 1637.86 375.694 1638.95 413.5 1639.06 C 454.093 1639.17 494.607 1638.32 535.187 1637.97 C 646.988 1637.01 758.713 1638.65 870.5 1638.56 C 926.414 1638.51 982.334 1637.24 1038.24 1636.95 C 1071.17 1636.77 1104.04 1637.89 1136.96 1637.96 C 1178.05 1638.04 1219.15 1637.11 1260.26 1637.17 C 1313.5 1637.25 1366.72 1638.93 1419.94 1639.05 C 1513.9 1639.26 1607.89 1637.93 1701.86 1637.92 C 1739.21 1637.91 1776.57 1638.41 1813.91 1638.63 C 1832.73 1638.74 1853.47 1640.55 1872.03 1637.72 C 1875.22 1637.23 1877.3 1635.63 1879.04 1633.04 C 1885.21 1623.86 1888.88 1606.66 1886.92 1595.82 C 1888.9 1586.42 1888.04 1575.97 1888.03 1566.38 C 1888.01 1549.93 1887.97 1533.5 1888.35 1517.05 L 1795.6 1516.84 z"/>
<path transform="translate(0,0)" fill="rgb(141,227,245)" d="M 1251.11 1414.05 C 1305.7 1413.61 1360.19 1413.51 1414.78 1414.37 C 1423.73 1414.51 1458.83 1412.95 1464.67 1417.39 C 1470.56 1421.87 1474.94 1430.85 1476 1438 C 1476.89 1444.07 1475.86 1448.88 1472 1453.65 C 1467.74 1458.92 1460.51 1465.33 1453.5 1465.93 C 1442.88 1466.83 1431.72 1466.36 1421.05 1466.44 C 1397.3 1466.63 1373.55 1466.31 1349.79 1466.28 C 1277.17 1466.21 1204.56 1465.87 1131.94 1466.14 C 1019.19 1466.55 906.439 1466.17 793.692 1466.21 C 753.335 1466.23 712.982 1465.79 672.626 1465.71 C 646.336 1465.66 619.665 1466.53 593.426 1465.17 C 588.859 1464.93 585.833 1463.28 582.494 1460.25 C 576.602 1454.9 571.088 1445.76 571.021 1437.67 C 570.965 1430.96 576.424 1423.5 580.992 1418.99 C 582.269 1417.73 585.642 1414.62 587.132 1414.12 C 589.138 1413.46 594.033 1414.02 596.27 1413.98 C 605.954 1413.85 615.638 1413.79 625.322 1413.75 C 684.826 1413.48 744.329 1413.93 803.833 1413.97 C 914.973 1416.66 1026.26 1416.08 1137.43 1416.02 C 1166.15 1416 1194.8 1415.91 1223.5 1415.25 C 1230.41 1415.09 1242.85 1416.57 1249.11 1414.15 L 1251.11 1414.05 z"/>
<path transform="translate(0,0)" fill="rgb(5,129,191)" d="M 141.006 1598.51 C 156.003 1598.55 170.992 1599.86 186 1599.95 C 278.305 1600.54 370.694 1600.42 463 1599.95 C 503.947 1599.75 544.858 1596.83 585.771 1596.84 C 632.04 1596.84 678.311 1597.78 724.567 1597.86 C 756.233 1597.91 787.936 1597.02 819.594 1597.38 C 856.375 1597.81 893.145 1599.62 929.923 1599.81 C 966.013 1599.99 1002.12 1597.84 1038.25 1597.83 C 1081.71 1597.82 1125.07 1599.54 1168.5 1599.89 C 1223.8 1600.34 1279.1 1599.55 1334.4 1599.7 C 1411.49 1599.91 1488.55 1599.02 1565.64 1599.01 C 1611.76 1599.01 1657.86 1599.88 1703.97 1599.96 C 1741.55 1600.02 1779.12 1600.04 1816.69 1600.06 C 1834.96 1600.07 1855.16 1601.76 1873.22 1599.38 L 1875 1599.12 C 1879.39 1598.51 1882.86 1597.65 1886.92 1595.82 C 1888.88 1606.66 1885.21 1623.86 1879.04 1633.04 C 1877.3 1635.63 1875.22 1637.23 1872.03 1637.72 C 1853.47 1640.55 1832.73 1638.74 1813.91 1638.63 C 1776.57 1638.41 1739.21 1637.91 1701.86 1637.92 C 1607.89 1637.93 1513.9 1639.26 1419.94 1639.05 C 1366.72 1638.93 1313.5 1637.25 1260.26 1637.17 C 1219.15 1637.11 1178.05 1638.04 1136.96 1637.96 C 1104.04 1637.89 1071.17 1636.77 1038.24 1636.95 C 982.334 1637.24 926.414 1638.51 870.5 1638.56 C 758.713 1638.65 646.988 1637.01 535.187 1637.97 C 494.607 1638.32 454.093 1639.17 413.5 1639.06 C 375.694 1638.95 337.814 1637.86 300.021 1638.13 C 258.883 1638.42 218.333 1638.91 177.196 1637.07 C 168.679 1636.69 159.448 1638 151.17 1636.04 C 143.773 1623.96 141.624 1612.57 141.006 1598.51 z"/>
<path transform="translate(0,0)" fill="rgb(81,164,217)" d="M 803.833 1413.97 C 803.262 1411.71 803.811 1407.91 803.843 1405.47 C 803.924 1399.31 803.949 1393.15 803.934 1386.99 C 803.882 1365.18 803.765 1343.37 803.675 1321.55 C 803.627 1310.04 802.851 1297.97 803.839 1286.52 C 804.483 1279.06 809.526 1272.1 815.278 1267.54 C 820.234 1263.6 826.168 1260.64 832.555 1260.16 C 855.182 1258.45 878.933 1259.94 901.67 1259.84 C 953.012 1259.61 1004.35 1259.62 1055.7 1259.64 C 1090.73 1259.66 1125.77 1259.72 1160.81 1259.83 C 1177.59 1259.89 1196.02 1258.44 1212.62 1260.65 L 1214.5 1260.91 C 1226.63 1262.53 1234.13 1267.57 1242.73 1275.75 C 1245.95 1279.61 1249.61 1284.18 1250.84 1289.16 C 1253.46 1299.76 1252.01 1313.68 1252.02 1324.64 C 1252.02 1354.45 1251.04 1384.24 1251.11 1414.05 L 1249.11 1414.15 C 1242.85 1416.57 1230.41 1415.09 1223.5 1415.25 C 1194.8 1415.91 1166.15 1416 1137.43 1416.02 C 1026.26 1416.08 914.973 1416.66 803.833 1413.97 z"/>
<path transform="translate(0,0)" fill="rgb(2,173,220)" d="M 833.195 1286.16 C 837.096 1285.68 841.1 1285.44 845 1286.12 C 848.618 1286.74 852.039 1288.43 854.159 1291.5 C 856.39 1294.73 856.557 1302.13 855.526 1305.88 C 854.175 1310.8 848.699 1314.73 844.66 1317.31 C 841.78 1318.27 838.713 1319.45 835.685 1319.81 C 831.289 1320.33 828.992 1319.68 825.5 1317.17 C 822.538 1310.35 821.259 1300.01 824.086 1292.89 C 825.714 1288.79 829.369 1287.69 833.195 1286.16 z"/>
<path transform="translate(0,0)" fill="rgb(5,129,191)" d="M 1242.73 1275.75 C 1245.95 1279.61 1249.61 1284.18 1250.84 1289.16 C 1253.46 1299.76 1252.01 1313.68 1252.02 1324.64 C 1252.02 1354.45 1251.04 1384.24 1251.11 1414.05 L 1249.11 1414.15 C 1245.89 1414.1 1242.04 1414.48 1239.15 1413 C 1237.74 1405.77 1238.38 1397.98 1238.53 1390.64 C 1238.82 1375.98 1239.95 1361.68 1240.99 1347.08 C 1242.64 1323.84 1243.91 1299.02 1242.73 1275.75 z"/>
<path transform="translate(0,0)" fill="rgb(189,238,245)" d="M 804.285 1060.36 C 844.335 1034.43 897.655 1028.44 944.186 1022.66 C 946.502 1033.28 950.541 1043.12 956.816 1052.05 C 971.593 1073.07 993.38 1087.6 1018.8 1091.71 C 1057.26 1097.93 1090.69 1078.77 1109.93 1045.88 C 1113.02 1040.58 1116.49 1029.24 1120.91 1026.02 C 1125.85 1030.81 1138.16 1030.76 1144.98 1032.07 C 1176.28 1038.07 1214.98 1044.16 1238.32 1067.82 C 1246.07 1075.68 1251.15 1083.77 1251.29 1095.12 C 1251.63 1122.28 1245.2 1151.03 1237.64 1177 L 1235.09 1185.97 L 1231.96 1197 L 1231.53 1198.48 C 1230.15 1203.57 1231.03 1204.2 1233.54 1208.5 L 1238.5 1211.49 L 1239.5 1210.49 C 1241.09 1211.02 1241.71 1211.47 1243 1212.49 L 1243 1213.5 L 1241.91 1213.01 C 1240.42 1212.42 1239.55 1212.42 1238 1212.5 L 1237 1211.51 C 1233.66 1211.61 1230.21 1211.55 1226.9 1211.98 C 1212.79 1211.42 1198.79 1209.56 1184.6 1209.22 C 1146.7 1208.33 1108.62 1209.37 1070.71 1209.71 C 1025.33 1210.12 979.942 1209.95 934.566 1209.97 C 915.132 1209.98 895.661 1210.23 876.232 1209.76 C 858.429 1209.33 838.781 1207.1 821.181 1209.6 C 801.421 1212.4 783.765 1219.21 770.846 1235.18 C 747.285 1264.29 751.688 1309.2 755.522 1343.9 C 743.196 1343.16 732.972 1342.72 722.71 1334.86 C 715.588 1329.41 710.517 1321 709.411 1312.09 C 708.719 1306.51 710.547 1300.57 711.741 1295.14 C 714.033 1284.72 716.797 1274.45 718.93 1263.99 C 725.17 1233.38 730.19 1202.51 736.967 1172 C 740.363 1156.71 743.578 1141.23 749.008 1126.5 C 754.166 1112.51 761.713 1101.24 770.911 1089.58 C 780.834 1076.88 790.74 1069.05 804.285 1060.36 z"/>
<path transform="translate(0,0)" fill="rgb(255,255,255)" d="M 770.911 1089.58 C 780.834 1076.88 790.74 1069.05 804.285 1060.36 C 809.228 1069.96 813.83 1082.05 810.351 1093 L 809.383 1095.35 L 808.795 1096.69 C 806.429 1101.8 801.676 1106.52 796.299 1108.41 C 791.215 1110.2 785.756 1110.59 781.078 1107.55 C 776.71 1104.71 774.547 1100.78 772.988 1096 L 770.911 1089.58 z"/>
<path transform="translate(0,0)" fill="rgb(247,194,129)" d="M 995.625 654.302 C 1020.31 654.209 1041.44 664.964 1063.48 674.706 C 1081.08 682.49 1099.02 689.558 1116.8 696.932 C 1148.47 710.065 1177.62 724.86 1213.1 719.389 L 1214.5 719.156 C 1222.58 717.898 1229.06 715.625 1236.35 711.98 C 1236.88 763.098 1230.2 821.337 1198.87 863.606 C 1165.84 908.173 1113.2 938.479 1058.53 946.686 L 1035.32 948.211 C 980.151 948.555 926.09 928.481 886.597 889.347 C 858.897 861.899 837.044 826.282 830.211 787.5 C 825.649 761.612 826.114 734.823 826.023 708.613 C 842.703 716.482 862.1 724.741 881 722.69 C 891.357 721.567 901.092 717.241 910.235 712.503 C 918.908 708.008 927.821 703.262 935.469 697.133 C 954.53 681.858 970.233 658.577 995.625 654.302 z"/>
<path transform="translate(0,0)" fill="rgb(1,1,107)" d="M 1116.22 735.218 C 1122.01 734.83 1127.62 735.659 1133 737.86 C 1140.67 740.997 1147.2 746.891 1150.08 754.819 C 1152.31 760.982 1151.25 768.745 1148.53 774.584 C 1144.2 783.887 1136.64 787.635 1127.42 790.782 C 1122.27 790.786 1117.49 791.671 1112.5 789.79 C 1105.27 787.061 1098.77 780.922 1095.69 773.8 C 1092.75 767.006 1092.9 760.196 1095.78 753.39 C 1099.88 743.718 1106.83 738.84 1116.22 735.218 z"/>
<path transform="translate(0,0)" fill="rgb(1,1,107)" d="M 941.861 733.205 C 946.037 733.231 950.176 734.039 954.031 735.686 C 961.978 739.08 970.668 746.756 973.53 754.994 C 975.953 761.968 975.34 770.111 971.799 776.614 C 967.451 784.599 959.222 787.986 951.013 790.483 C 944.109 790.942 938.694 790.94 932.405 787.492 C 924.859 783.355 919.598 775.845 917.5 767.594 C 915.739 760.667 916.887 753.378 920.598 747.312 C 925.657 739.044 932.735 735.284 941.861 733.205 z"/>
<path transform="translate(0,0)" fill="rgb(1,1,107)" d="M 1080.04 832.117 C 1085.07 832.163 1089.81 831.337 1094.66 833.185 C 1101.19 835.669 1107.15 841.063 1109.97 847.5 C 1113.05 854.516 1112.16 862.163 1109.42 869.135 C 1104.43 881.823 1091.49 890.617 1079.36 895.698 C 1050.71 907.693 1013.76 903.666 985.67 892.247 C 976.714 888.312 968.098 881.647 963.85 872.686 C 960.722 866.091 959.498 857.95 962.229 851 C 965.059 843.796 970.311 838.266 977.598 835.474 C 995.923 828.453 1000.88 840.592 1015.45 846.538 C 1026.58 851.08 1051.26 851.819 1061.65 845.108 C 1068.35 840.782 1072.36 835.332 1080.04 832.117 z"/>
<path transform="translate(0,0)" fill="rgb(189,238,245)" d="M 844.898 923.294 C 865.428 942.971 889.467 965.832 917.796 973.129 C 896.881 976.313 875.984 980.481 855.313 984.992 C 831.881 990.106 808.583 995.73 787.177 1006.87 C 763.967 1018.94 742.294 1037.92 726.705 1058.92 C 715.925 1073.45 707.271 1089.46 700.95 1106.41 C 694.556 1123.55 690.259 1141.56 686.04 1159.34 C 679.898 1185.22 674.504 1211.2 669.225 1237.27 C 665.274 1256.78 659.935 1276.3 657.501 1296.07 C 656.432 1304.76 656.122 1314.28 657.5 1322.95 C 659.91 1338.11 667.412 1350.14 676.481 1362.2 C 654.969 1362.56 633.455 1362.88 611.945 1363.35 C 599.053 1363.63 585.099 1362.86 572.5 1365.7 L 570.711 1366.08 C 552.587 1370.11 540.355 1382.47 529.536 1396.82 C 526.2 1402.02 523.071 1409.44 519.242 1414.01 C 507.311 1411.99 492.977 1412.2 480.903 1413.12 L 482.37 1387 L 482.912 1378.25 L 482.945 1376.91 C 483.045 1370.29 483.027 1360.42 477.742 1355.62 C 472.372 1350.74 460.962 1352.11 454.263 1352.08 C 453.893 1346.41 452.547 1340.34 451.098 1334.85 C 445.645 1314.2 434.431 1301.78 416.361 1291.13 C 418.79 1282.21 419.355 1272.63 420.085 1263.44 C 421.52 1245.39 421.813 1227.19 422.808 1209.1 C 425.412 1161.79 428.066 1114.19 434.718 1067.25 C 438.229 1042.48 443.022 1018.27 449.81 994.195 C 451.289 988.949 453.873 977.343 458.099 974.176 C 492.416 996.016 532.379 1012.42 569.852 1028.07 C 590.399 1036.65 611.494 1046.2 633.14 1051.62 C 645.45 1054.7 661.48 1056.91 673.945 1054.23 L 677.5 1053.38 L 679.209 1052.99 C 691.757 1050.04 710.745 1039.48 718.543 1028.87 C 730.49 1023.38 741.54 1012.92 751.791 1004.75 C 784.141 978.984 815.361 952.269 844.898 923.294 z"/>
<path transform="translate(0,0)" fill="rgb(141,227,245)" d="M 482.912 1378.25 C 490.586 1376.01 498.912 1377.1 506.844 1376.17 C 511.666 1375.6 514.784 1376.87 519.011 1379 C 519.791 1382.01 519.697 1384.92 519.694 1388 L 518.186 1389.54 L 482.37 1387 L 482.912 1378.25 z"/>
<path transform="translate(0,0)" fill="rgb(255,255,255)" d="M 482.37 1387 L 518.186 1389.54 C 522.739 1390.91 525.823 1391.66 528.723 1395.73 L 529.536 1396.82 C 526.2 1402.02 523.071 1409.44 519.242 1414.01 C 507.311 1411.99 492.977 1412.2 480.903 1413.12 L 482.37 1387 z"/>
<path transform="translate(0,0)" fill="rgb(136,222,235)" d="M 257.181 1412.98 C 252.154 1407.82 250.677 1394.72 249.048 1387.75 C 237.126 1336.69 229.572 1283.28 226.866 1230.91 C 223.68 1169.25 225.829 1106.07 234.95 1045 C 240.457 1008.13 247.084 972.675 258.835 937.205 C 268.502 908.025 280.026 879.275 301.125 856.225 C 310.79 845.666 322.329 844.51 335.974 843.927 C 347.588 862.46 356.377 882.933 367.936 901.582 C 377.158 916.461 389.113 925.205 402.5 935.857 C 415.039 945.834 427.448 955.119 440.931 963.805 C 442.698 964.944 457.984 972.99 458.099 974.176 C 453.873 977.343 451.289 988.949 449.81 994.195 C 443.022 1018.27 438.229 1042.48 434.718 1067.25 C 428.066 1114.19 425.412 1161.79 422.808 1209.1 C 421.813 1227.19 421.52 1245.39 420.085 1263.44 C 419.355 1272.63 418.79 1282.21 416.361 1291.13 C 434.431 1301.78 445.645 1314.2 451.098 1334.85 C 452.547 1340.34 453.893 1346.41 454.263 1352.08 C 460.962 1352.11 472.372 1350.74 477.742 1355.62 C 483.027 1360.42 483.045 1370.29 482.945 1376.91 L 482.912 1378.25 L 482.37 1387 L 480.903 1413.12 L 285.558 1413.11 C 277.768 1415.35 264.945 1414.95 257.181 1412.98 z M 285.558 1413.11 L 480.903 1413.12 L 482.37 1387 L 482.912 1378.25 L 482.945 1376.91 C 483.045 1370.29 483.027 1360.42 477.742 1355.62 C 472.372 1350.74 460.962 1352.11 454.263 1352.08 C 453.893 1346.41 452.547 1340.34 451.098 1334.85 C 445.645 1314.2 434.431 1301.78 416.361 1291.13 C 395.931 1282.38 375.44 1280.6 354.48 1289 C 338.647 1295.34 324.205 1308.55 317.567 1324.41 C 313.739 1333.55 313.84 1343.32 311.292 1352.72 L 309.892 1352.52 C 303.644 1351.66 298.511 1351.1 293.33 1355.34 C 288.529 1359.26 284.536 1366.27 284.211 1372.52 L 285.558 1413.11 z"/>
<path transform="translate(0,0)" fill="rgb(1,1,107)" d="M 285.558 1413.11 L 284.211 1372.52 C 284.536 1366.27 288.529 1359.26 293.33 1355.34 C 298.511 1351.1 303.644 1351.66 309.892 1352.52 L 311.292 1352.72 C 313.84 1343.32 313.739 1333.55 317.567 1324.41 C 324.205 1308.55 338.647 1295.34 354.48 1289 C 375.44 1280.6 395.931 1282.38 416.361 1291.13 C 434.431 1301.78 445.645 1314.2 451.098 1334.85 C 452.547 1340.34 453.893 1346.41 454.263 1352.08 C 460.962 1352.11 472.372 1350.74 477.742 1355.62 C 483.027 1360.42 483.045 1370.29 482.945 1376.91 L 482.912 1378.25 L 482.37 1387 L 480.903 1413.12 L 285.558 1413.11 z M 374.154 1340.5 C 369.178 1342.96 366.152 1346.27 364.247 1351.54 L 361.937 1360.74 C 372.385 1362.04 384.133 1361.11 394.724 1361.11 L 405.343 1361.58 C 403.212 1354.08 401.318 1347.1 394.122 1342.93 C 388.263 1339.53 380.683 1338.95 374.154 1340.5 z"/>
<path transform="translate(0,0)" fill="rgb(24,193,215)" d="M 141.006 1598.51 L 141.003 1517.21 C 148.836 1514.63 163.266 1516.31 171.645 1516.35 C 198.182 1516.47 224.715 1516.92 251.253 1516.96 C 381.667 1517.11 512.068 1517.26 642.478 1517.66 C 690.087 1517.81 737.801 1518.06 785.407 1517.73 C 814.391 1517.52 843.367 1516.42 872.36 1516.42 C 1180.1 1516.36 1487.86 1516.33 1795.6 1516.84 L 1888.35 1517.05 C 1887.97 1533.5 1888.01 1549.93 1888.03 1566.38 C 1888.04 1575.97 1888.9 1586.42 1886.92 1595.82 C 1882.86 1597.65 1879.39 1598.51 1875 1599.12 L 1873.22 1599.38 C 1855.16 1601.76 1834.96 1600.07 1816.69 1600.06 C 1779.12 1600.04 1741.55 1600.02 1703.97 1599.96 C 1657.86 1599.88 1611.76 1599.01 1565.64 1599.01 C 1488.55 1599.02 1411.49 1599.91 1334.4 1599.7 C 1279.1 1599.55 1223.8 1600.34 1168.5 1599.89 C 1125.07 1599.54 1081.71 1597.82 1038.25 1597.83 C 1002.12 1597.84 966.013 1599.99 929.923 1599.81 C 893.145 1599.62 856.375 1597.81 819.594 1597.38 C 787.936 1597.02 756.233 1597.91 724.567 1597.86 C 678.311 1597.78 632.04 1596.84 585.771 1596.84 C 544.858 1596.83 503.947 1599.75 463 1599.95 C 370.694 1600.42 278.305 1600.54 186 1599.95 C 170.992 1599.86 156.003 1598.55 141.006 1598.51 z"/>
<path transform="translate(0,0)" fill="rgb(1,83,173)" d="M 1370.43 1005.77 C 1374.03 1003.45 1378.08 1001.52 1382.33 1000.75 C 1391.69 999.072 1401.79 999.201 1411.28 998.88 C 1428.05 998.312 1444.78 997.949 1461.55 997.936 C 1510.53 997.898 1559.49 998.521 1608.46 999.189 L 1609.35 999.363 C 1622.41 1001.68 1638.19 1000.18 1651.52 1000.15 C 1679.74 1000.08 1707.96 999.899 1736.17 999.924 C 1743.51 999.93 1755.65 998.13 1762.36 1000.65 L 1762.8 1002.55 C 1764.02 1007.23 1768.29 1011.42 1770.84 1015.5 C 1773.61 1019.91 1774.87 1024.99 1776.02 1030 C 1779.72 1046.08 1779.41 1063 1779.13 1079.42 C 1778.41 1121.79 1772.64 1163.51 1766.96 1205.44 C 1763.18 1233.35 1759.73 1261.32 1755.4 1289.15 C 1751.58 1313.71 1743.8 1338.7 1745.68 1363.72 C 1732.76 1363.74 1718.24 1362.45 1705.52 1364.15 L 1342.26 1363.34 C 1344.6 1355.26 1345.86 1346.17 1347.59 1337.87 C 1352.07 1316.42 1355.78 1295.31 1358.93 1273.61 C 1364.57 1234.81 1369.86 1195.72 1374.02 1156.73 C 1375.92 1138.91 1377.46 1121.04 1379.27 1103.2 C 1380.75 1088.7 1381.93 1072.16 1387.55 1058.56 C 1393.29 1044.66 1403.5 1039.5 1413.7 1029.71 C 1414.05 1025.92 1413.73 1023.99 1411.3 1020.97 C 1400.73 1007.78 1385.87 1007.07 1370.43 1005.77 z"/>
<path transform="translate(0,0)" fill="rgb(1,1,107)" d="M 1561.3 1141.38 C 1575.37 1140.47 1588.03 1144.04 1600.33 1150.67 C 1617.18 1159.76 1629.61 1176.04 1634.84 1194.3 L 1635.31 1195.99 C 1636.33 1199.52 1636.97 1202.87 1637.3 1206.52 C 1639.07 1226.03 1633.54 1246.53 1620.88 1261.71 C 1607.53 1277.72 1590.65 1284.63 1570.25 1286.45 C 1566.67 1286.83 1562.93 1286.46 1559.35 1286.16 C 1539.96 1284.51 1521.53 1271.52 1509.55 1256.78 C 1497.21 1241.59 1492.88 1222.73 1494.92 1203.5 C 1496.26 1190.88 1500.83 1178 1508.78 1168 C 1522.52 1150.7 1540.02 1143.88 1561.3 1141.38 z"/>
<path transform="translate(0,0)" fill="rgb(8,36,135)" d="M 1560.7 1197.5 C 1562.96 1197.04 1566.12 1196.56 1568.34 1197.24 C 1572.92 1198.64 1577.62 1205.06 1579.13 1209.39 C 1580.6 1213.61 1580.07 1217.65 1577.76 1221.5 C 1575.34 1225.53 1571.89 1226.95 1567.59 1228.26 C 1564.53 1228.02 1561.22 1227.66 1558.29 1226.72 C 1554.61 1225.55 1550.48 1222.12 1548.79 1218.6 C 1547.5 1215.91 1547.74 1212.35 1548.66 1209.58 C 1550.57 1203.83 1555.51 1200.06 1560.7 1197.5 z"/>
<path transform="translate(0,0)" fill="rgb(189,238,245)" d="M 1310.99 491.102 C 1318.88 491.961 1325.47 494.247 1332.97 496.671 C 1356.08 504.134 1375.3 515.199 1396.39 526.743 C 1411.28 534.893 1426.8 541.436 1441.46 550.141 C 1459.67 560.961 1476.85 573.459 1494.3 585.441 C 1513.58 598.673 1533.73 611.816 1551.67 626.804 C 1567.83 640.309 1583.11 655.886 1598.13 670.687 C 1621.39 693.596 1644.39 716.413 1664.88 741.884 C 1692.14 775.781 1714.72 810.795 1735.36 849.119 C 1752.18 880.354 1766.97 911.747 1775.7 946.31 C 1711.6 945.172 1647.33 947.267 1583.2 946.857 C 1538.1 946.569 1493.02 946.448 1447.93 946.247 C 1432.24 946.177 1416.56 946.072 1400.88 946.096 C 1389.43 946.114 1376.84 945.55 1365.69 948.455 L 1364 948.92 C 1355.94 951.076 1348.51 953.955 1341.12 957.813 C 1317.31 970.241 1302.22 993.726 1294.29 1018.75 C 1258.1 998.808 1217.14 987.887 1176.8 980.24 C 1165.82 978.16 1154.91 975.531 1143.79 974.431 L 1165.72 963.759 C 1221.08 930.554 1262.95 880.509 1278.68 817.185 C 1288.14 817.041 1297.05 815.99 1306.12 813.176 C 1335.92 803.932 1362.86 783.598 1377.38 755.681 C 1389.85 731.722 1393.06 703.674 1384.6 677.805 C 1376.96 654.443 1361.09 633.626 1340.86 619.757 C 1329.5 611.966 1317.01 606.207 1304.7 600.09 C 1304.37 580.613 1303.26 561.21 1300.6 541.904 C 1299.57 534.425 1298.58 526.94 1297.51 519.467 C 1297.3 518.007 1296.25 513.986 1296.54 512.829 C 1296.84 511.632 1299.71 508.364 1300.45 507.309 C 1303.95 502.324 1307.54 497.394 1310.48 492.048 L 1310.99 491.102 z"/>
<path transform="translate(0,0)" fill="rgb(2,173,220)" d="M 338.854 841.988 L 340.427 841.471 C 344.173 840.147 347.745 837.225 349.288 833.5 C 351.799 827.44 348.582 821.966 346.069 816.55 C 354.071 814.635 362.214 814.873 368.5 808.869 C 375.689 802.003 378.387 791.472 383.446 783.069 C 387.756 775.908 392.715 769.032 397.454 762.151 C 414.841 736.905 434.662 712.863 455.06 690 C 472.925 669.977 492.225 651.731 511.918 633.526 C 547.63 600.512 586.202 568.67 627.689 543.135 C 658.212 524.347 691.152 508.298 723.728 493.412 C 736.333 487.652 748.935 482.177 761.891 477.24 C 771.077 473.739 779.864 470.309 789.771 469.749 C 783.425 485.712 777.749 501.998 774.424 518.891 C 769.375 544.534 768.93 571.138 767.971 597.176 C 733.896 606.665 706.221 623.128 688.293 654.633 C 675.068 677.874 672.183 707.171 679.366 732.802 C 687.798 762.888 707.954 787.233 735.285 802.393 C 750.599 810.888 767.348 814.73 784.592 816.967 C 791.789 846.839 804.637 873.481 823.62 897.76 C 830.408 906.442 838.41 914.469 844.898 923.294 C 815.361 952.269 784.141 978.984 751.791 1004.75 C 741.54 1012.92 730.49 1023.38 718.543 1028.87 C 710.745 1039.48 691.757 1050.04 679.209 1052.99 L 677.5 1053.38 L 673.945 1054.23 C 661.48 1056.91 645.45 1054.7 633.14 1051.62 C 611.494 1046.2 590.399 1036.65 569.852 1028.07 C 532.379 1012.42 492.416 996.016 458.099 974.176 C 457.984 972.99 442.698 964.944 440.931 963.805 C 427.448 955.119 415.039 945.834 402.5 935.857 C 389.113 925.205 377.158 916.461 367.936 901.582 C 356.377 882.933 347.588 862.46 335.974 843.927 L 338.854 841.988 z"/>
<path transform="translate(0,0)" fill="rgb(24,193,215)" d="M 338.854 841.988 C 346.833 851.009 352.104 861.004 358.5 871.098 C 367.844 885.843 378.398 900.179 390.349 912.92 C 418.6 943.038 453.482 966.897 491 983.985 C 514.973 994.905 540.88 1003.25 566 1011.11 C 595.037 1020.19 623.974 1028.48 654.523 1030.36 L 718.543 1028.87 C 710.745 1039.48 691.757 1050.04 679.209 1052.99 L 677.5 1053.38 L 673.945 1054.23 C 661.48 1056.91 645.45 1054.7 633.14 1051.62 C 611.494 1046.2 590.399 1036.65 569.852 1028.07 C 532.379 1012.42 492.416 996.016 458.099 974.176 C 457.984 972.99 442.698 964.944 440.931 963.805 C 427.448 955.119 415.039 945.834 402.5 935.857 C 389.113 925.205 377.158 916.461 367.936 901.582 C 356.377 882.933 347.588 862.46 335.974 843.927 L 338.854 841.988 z"/>
<path transform="translate(0,0)" fill="rgb(136,222,235)" d="M 648.005 801.5 C 663.797 797.907 679.98 810.307 692.926 817.668 C 701.725 822.672 710.627 827.465 719.469 832.389 C 728.578 837.461 744.485 845.651 747.162 856.649 C 750.681 871.099 742.227 889.221 734.97 901.625 C 720.078 927.08 693.879 953.435 664.381 960.905 L 663 961.239 C 654.724 963.315 645.526 961.915 637.242 960.51 C 611.715 955.465 589.336 943.996 566.541 931.947 C 556.175 926.468 545.359 921.229 535.699 914.58 C 544.898 900.571 635.952 807.165 648.005 801.5 z"/>
<path transform="translate(0,0)" fill="rgb(24,193,215)" d="M 1322.91 441.292 C 1358.22 449.93 1392.67 467.509 1424.8 484.223 C 1563.83 556.548 1685.31 663.994 1766.93 798.406 C 1776.72 814.518 1784.86 831.333 1793.25 848.187 C 1806.12 874.043 1817.27 896.796 1823.51 925.239 C 1825.04 932.197 1827.02 940.296 1826.81 947.401 L 1775.7 946.31 C 1766.97 911.747 1752.18 880.354 1735.36 849.119 C 1714.72 810.795 1692.14 775.781 1664.88 741.884 C 1644.39 716.413 1621.39 693.596 1598.13 670.687 C 1583.11 655.886 1567.83 640.309 1551.67 626.804 C 1533.73 611.816 1513.58 598.673 1494.3 585.441 C 1476.85 573.459 1459.67 560.961 1441.46 550.141 C 1426.8 541.436 1411.28 534.893 1396.39 526.743 C 1375.3 515.199 1356.08 504.134 1332.97 496.671 C 1325.47 494.247 1318.88 491.961 1310.99 491.102 C 1317.63 474.325 1321.75 459.469 1322.91 441.292 z"/>
<path transform="translate(0,0)" fill="rgb(5,129,191)" d="M 192.199 1363.44 C 190.031 1359.59 189.286 1354.29 188.51 1349.95 C 183.615 1322.55 181.256 1295.2 179.006 1267.5 C 174.774 1215.4 175.33 1164.12 179.001 1112 C 183.105 1053.73 191.413 998.007 206.939 941.598 C 217.112 904.635 229.872 866.306 252.35 834.796 C 264.624 817.591 280.385 803.402 300.82 796.99 C 308.246 794.659 315.775 793.758 323.342 792.165 C 324.458 791.93 324.94 791.81 325.866 790.917 C 328.72 788.165 331.751 778.409 333.621 774.374 C 339.424 761.86 345.737 750.041 353.124 738.379 C 383.927 689.741 421.721 646.772 463.667 607.455 C 480.425 591.747 497.05 575.914 514.96 561.5 C 556.706 527.904 602.196 499.542 649.019 473.675 C 705.099 442.694 762.472 417.04 825.167 402.849 C 821.015 410.194 816.015 417.016 811.87 424.371 C 803.624 439.008 796.43 454.34 789.771 469.749 C 779.864 470.309 771.077 473.739 761.891 477.24 C 748.935 482.177 736.333 487.652 723.728 493.412 C 691.152 508.298 658.212 524.347 627.689 543.135 C 586.202 568.67 547.63 600.512 511.918 633.526 C 492.225 651.731 472.925 669.977 455.06 690 C 434.662 712.863 414.841 736.905 397.454 762.151 C 392.715 769.032 387.756 775.908 383.446 783.069 C 378.387 791.472 375.689 802.003 368.5 808.869 C 362.214 814.873 354.071 814.635 346.069 816.55 C 348.582 821.966 351.799 827.44 349.288 833.5 C 347.745 837.225 344.173 840.147 340.427 841.471 L 338.854 841.988 L 335.974 843.927 C 322.329 844.51 310.79 845.666 301.125 856.225 C 280.026 879.275 268.502 908.025 258.835 937.205 C 247.084 972.675 240.457 1008.13 234.95 1045 C 225.829 1106.07 223.68 1169.25 226.866 1230.91 C 229.572 1283.28 237.126 1336.69 249.048 1387.75 C 250.677 1394.72 252.154 1407.82 257.181 1412.98 L 204.387 1413.26 C 199.911 1403.14 198.903 1390.46 197.503 1379.59 C 196.828 1374.35 196.538 1369.08 194.5 1364.17 L 192.199 1363.44 z"/>
</svg>